<svg xmlns="http://www.w3.org/2000/svg" width="100mm" height="100mm" viewBox="0 0 90 90">
<path style="fill:#ffffff; stroke:none;" d="M0 0L0 90L90 90L90 0L0 0z"></path>
<path style="fill:#000000; stroke:none;" d="M10 10L10 80L80 80L80 10L10 10z"></path>
<path style="fill:#ffffff; stroke:none;" d="M20 20L20 30L30 30L30 40L20 40L20 50L30 50L30 60L20 60L20 70L30 70L30 60L40 60L40 70L60 70L60 60L70 60L70 50L60 50L60 60L50 60L50 40L40 40L40 30L60 30L60 40L70 40L70 30L60 30L60 20L20 20z"></path>
<path style="fill:#000000; stroke:none;" d="M30 40L30 50L40 50L40 40L30 40z"></path>
</svg>